<svg viewBox="0 0 435 307" xmlns="http://www.w3.org/2000/svg" fill-rule="evenodd" clip-rule="evenodd" stroke-linejoin="round" stroke-miterlimit="2"><path d="M274.034 277.138c-4.11-4.11-4.102-10.772.004-14.878-4.106 4.106-10.778 4.103-14.889-.007 4.11 4.11 4.115 10.78.009 14.887 4.106-4.106 10.766-4.113 14.876-.002z" fill="#9ff"/><path d="M123.83 306.548c-4.11-4.11-4.103-10.772.003-14.878-4.106 4.106-10.778 4.103-14.889-.007 4.11 4.11 4.115 10.78.009 14.887 4.106-4.106 10.766-4.113 14.876-.002z" fill="#80c0ff"/><path d="M112.207 100.405c-2.3-5.338.167-11.525 5.5-13.824-5.333 2.299-11.531-.17-13.832-5.508 2.3 5.338-.16 11.539-5.493 13.837 5.333-2.298 11.524.157 13.825 5.495z" fill="#80ffd7"/><path d="M426.446 275.114c-5.283 2.422-11.526.097-13.946-5.182 2.42 5.279.095 11.532-5.189 13.955 5.284-2.423 11.54-.105 13.96 5.174-2.42-5.279-.108-11.525 5.175-13.947z" fill="#ffe14b"/><path d="M13.09 35.342c-1.673 5.567-7.542 8.716-13.104 7.045 5.562 1.67 8.72 7.548 7.047 13.115 1.673-5.567 7.545-8.731 13.107-7.06-5.562-1.671-8.723-7.533-7.05-13.1z" fill="#ffacff"/><path d="M419.054.382c4.212 4.006 4.372 10.665.37 14.873 4.002-4.208 10.672-4.372 14.884-.367-4.212-4.005-4.384-10.674-.382-14.882-4.002 4.208-10.66 4.382-14.872.376z" fill="#f99"/><g><path d="M213.437 162.221l-39.565 39.36 39.565 70.44v-109.8z" fill="#2f3236"/><path d="M220.849 162.221v109.8l39.565-70.44-39.565-39.36z" fill="#41464a"/><path d="M226.114 156.956l39.36 39.565 70.44-39.565h-109.8z" fill="#292c2f"/><path d="M168.812 109.98l-70.389 39.564v7.412l70.389 39.565 43.092-43.245-43.092-43.297z" fill="#41464a"/><path d="M262.254 108.19l73.66 41.354h-109.8l-5.265-5.265V34.48l41.405 73.711zM173.872 104.919l39.565 39.36V34.48l-39.565 70.44z" fill="#2f3236"/><g><path d="M228.24 79.953v48.459l16.255-16.255-16.256-32.204z" fill="#78fbfb"/></g><g><path d="M205.36 229.97v-48.459l-16.256 16.256 16.255 32.203z" fill="#ff2c62"/></g></g></svg>