<svg viewBox="0 0 52 52" xmlns="http://www.w3.org/2000/svg" xml:space="preserve" style="fill-rule:evenodd;clip-rule:evenodd;stroke-linejoin:round;stroke-miterlimit:2"><path d="m1533.12 1258.19-7.74 7.7 7.74 13.78v-21.48z" style="fill:#fff" transform="translate(-1634.507 -1334.271) scale(1.08264)"/><path d="M1534.57 1258.19v21.48l7.74-13.78-7.74-7.7z" style="fill:url(#a)" transform="translate(-1634.507 -1334.271) scale(1.08264)"/><path d="m1535.6 1257.16 7.7 7.74 13.78-7.74h-21.48z" style="fill:url(#b)" transform="translate(-1634.507 -1334.271) scale(1.08264)"/><path d="m1524.39 1247.97-13.77 7.74v1.45l13.77 7.74 8.43-8.46-8.43-8.47z" style="fill:url(#c)" transform="translate(-1634.507 -1334.271) scale(1.08264)"/><path d="m1542.67 1247.62 14.41 8.09h-21.48l-1.03-1.03v-21.48l8.1 14.42z" style="fill:#bba6ff" transform="translate(-1634.507 -1334.271) scale(1.08264)"/><path d="m1525.38 1246.98 7.74 7.7v-21.48l-7.74 13.78z" style="fill:url(#d)" transform="translate(-1634.507 -1334.271) scale(1.08264)"/><path d="M1534.54 1243.15v9.48l3.18-3.18-3.18-6.3z" style="fill:#fff" transform="translate(-1632.91 -1335.412) scale(1.08264)"/><path d="M1534.54 1243.15v9.48l3.18-3.18-3.18-6.3z" style="fill:#6bd5ff" transform="rotate(-180 842.477 694.064) scale(1.08264)"/><defs><linearGradient id="a" x1="0" y1="0" x2="1" y2="0" gradientUnits="userSpaceOnUse" gradientTransform="rotate(45 -749.73 2479.742) scale(23.1555)"><stop offset="0" style="stop-color:#4997f4;stop-opacity:1"/><stop offset="1" style="stop-color:#4997f4;stop-opacity:1"/></linearGradient><linearGradient id="b" x1="0" y1="0" x2="1" y2="0" gradientUnits="userSpaceOnUse" gradientTransform="rotate(45 -749.73 2479.743) scale(19.8939)"><stop offset="0" style="stop-color:#81b3fb;stop-opacity:1"/><stop offset=".44" style="stop-color:#7abdfc;stop-opacity:1"/><stop offset="1" style="stop-color:#6bd5ff;stop-opacity:1"/></linearGradient><linearGradient id="c" x1="0" y1="0" x2="1" y2="0" gradientUnits="userSpaceOnUse" gradientTransform="rotate(-90 1394.65 -129.75) scale(16.9277)"><stop offset="0" style="stop-color:#6bd5ff;stop-opacity:1"/><stop offset="1" style="stop-color:#22d5ff;stop-opacity:1"/></linearGradient><linearGradient id="d" x1="0" y1="0" x2="1" y2="0" gradientUnits="userSpaceOnUse" gradientTransform="rotate(-90 1393.9 -139.22) scale(25.1615)"><stop offset="0" style="stop-color:#ffaee0;stop-opacity:1"/><stop offset=".59" style="stop-color:#ffb7ba;stop-opacity:1"/><stop offset=".8" style="stop-color:#ffca67;stop-opacity:1"/><stop offset="1" style="stop-color:#ffdd14;stop-opacity:1"/></linearGradient></defs></svg>