<svg width="112" height="29" fill="none" xmlns="http://www.w3.org/2000/svg"><g clip-path="url(#a)"><path fill-rule="evenodd" clip-rule="evenodd" d="m14.473 15.59-4.979 4.806 4.979 8.6V15.592z" fill="#fff"/><path fill-rule="evenodd" clip-rule="evenodd" d="M15.406 15.59v13.407l4.978-8.6-4.978-4.806z" fill="url(#b)"/><path fill-rule="evenodd" clip-rule="evenodd" d="m16.068 14.948 4.953 4.83 8.864-4.83H16.068z" fill="url(#c)"/><path fill-rule="evenodd" clip-rule="evenodd" d="M8.857 9.212 0 14.042v.906l8.857 4.83 5.423-5.28-5.423-5.286z" fill="url(#d)"/><path fill-rule="evenodd" clip-rule="evenodd" d="m20.616 8.994 9.27 5.049H16.067l-.662-.643V-.006l5.21 9z" fill="#BBA6FF"/><path fill-rule="evenodd" clip-rule="evenodd" d="m9.494 8.594 4.979 4.806V-.006l-4.979 8.6z" fill="url(#e)"/><path fill-rule="evenodd" clip-rule="evenodd" d="M16.336 5.546v5.917l2.045-1.985-2.045-3.932z" fill="#fff"/><path fill-rule="evenodd" clip-rule="evenodd" d="M13.456 23.862v-5.916l-2.045 1.984 2.045 3.932z" fill="#6BD5FF"/><path d="M45.591 20.913a5.515 5.515 0 0 1-2.405-.535 7.068 7.068 0 0 1-2.646-2.483 6.795 6.795 0 0 1-1.026-3.43c-.006-1.212.332-2.4.976-3.438a6.714 6.714 0 0 1 2.678-2.441 5.84 5.84 0 0 1 2.423-.499 5.25 5.25 0 0 1 2.923.642 5.035 5.035 0 0 1 2.053 2.12l-1.267.854a3.823 3.823 0 0 0-1.56-1.638 4.56 4.56 0 0 0-3.984-.125 4.288 4.288 0 0 0-1.377 1.104 5.768 5.768 0 0 0-1.1 2.58 5.696 5.696 0 0 0 .255 2.782c.198.578.513 1.111.926 1.57.413.459.916.833 1.48 1.102a4.335 4.335 0 0 0 3.91-.16 6.379 6.379 0 0 0 1.91-1.693v1.657a5.292 5.292 0 0 1-1.843 1.482 5.456 5.456 0 0 1-2.326.549zm3.966-5.184h-2.809v-1.211h4.205v6.306h-1.396v-5.095zM61.675 10.83a4.384 4.384 0 0 0-1.414-.908 5.806 5.806 0 0 0-2.13-.41c-1.01 0-1.744.178-2.221.553-.234.18-.421.41-.546.673a1.79 1.79 0 0 0-.17.84c0 .446.128.802.367 1.052.313.308.706.53 1.138.64.496.179 1.138.34 1.928.517.802.166 1.588.399 2.35.695A3.63 3.63 0 0 1 62.5 15.57c.376.54.563 1.183.532 1.835a3.249 3.249 0 0 1-.349 1.567 3.26 3.26 0 0 1-1.01 1.105 4.754 4.754 0 0 1-1.505.64 8.738 8.738 0 0 1-3.8-.017 7.514 7.514 0 0 1-3.379-1.568l.79-1.353A6.5 6.5 0 0 0 56.9 19.31c.47.108.95.161 1.432.16.936 0 1.652-.16 2.166-.481.247-.15.448-.362.584-.612.135-.25.2-.53.188-.813a1.575 1.575 0 0 0-.423-1.14 3.182 3.182 0 0 0-1.285-.713 23.68 23.68 0 0 0-2.056-.57c-.758-.175-1.5-.408-2.222-.694a3.165 3.165 0 0 1-1.34-1.016 2.595 2.595 0 0 1-.459-1.62c0-.802.202-1.48.606-2.032a3.603 3.603 0 0 1 1.67-1.264 6.987 6.987 0 0 1 3.482-.357 6.897 6.897 0 0 1 3.202 1.372l-.771 1.3zM64.906 14.393a6.65 6.65 0 0 1 1.634-4.31 6.075 6.075 0 0 1 1.947-1.461 6.217 6.217 0 0 1 2.625-.535 5.229 5.229 0 0 1 2.85.675 5.015 5.015 0 0 1 1.997 2.086l-1.304.82a3.75 3.75 0 0 0-.973-1.283 3.99 3.99 0 0 0-1.285-.659 5.212 5.212 0 0 0-1.358-.196 4.125 4.125 0 0 0-1.859.392 3.996 3.996 0 0 0-1.465 1.176 5.533 5.533 0 0 0-1.122 3.453 5.545 5.545 0 0 0 1.27 3.405c.394.459.881.835 1.431 1.104a4.079 4.079 0 0 0 3.195.178c.489-.162.943-.41 1.34-.73a3.29 3.29 0 0 0 .992-1.265l1.377.73a4.111 4.111 0 0 1-1.249 1.604 6.363 6.363 0 0 1-3.929 1.336 5.42 5.42 0 0 1-2.46-.57 6.797 6.797 0 0 1-3.195-3.599 6.176 6.176 0 0 1-.459-2.35zM82.605 8.176H84l5.325 12.648h-1.763l-1.469-3.706h-5.6l-1.468 3.706h-1.763l5.343-12.648zm3.01 7.696-2.312-5.843-2.314 5.843h4.627zM91.62 20.824V8.176h1.652V19.4h7.27v1.425h-8.923zM111.741 19.399v1.425h-8.849V8.176h8.684v1.425h-7.032v4.097h6.114v1.336h-6.114V19.4h7.197z" fill="#F4F4F4"/></g><defs><linearGradient id="b" x1="14.944" y1="14.498" x2="25.158" y2="25.025" gradientUnits="userSpaceOnUse"><stop stop-color="#4997F4"/><stop offset="1" stop-color="#4997F4"/></linearGradient><linearGradient id="c" x1="14.944" y1="14.498" x2="23.719" y2="23.543" gradientUnits="userSpaceOnUse"><stop stop-color="#81B3FB"/><stop offset=".44" stop-color="#7ABDFC"/><stop offset="1" stop-color="#6BD5FF"/></linearGradient><linearGradient id="d" x1="8.864" y1="19.778" x2="8.864" y2="9.214" gradientUnits="userSpaceOnUse"><stop stop-color="#6BD5FF"/><stop offset="1" stop-color="#22D5FF"/></linearGradient><linearGradient id="e" x1="14.473" y1="13.4" x2="14.473" y2="-2.304" gradientUnits="userSpaceOnUse"><stop stop-color="#FFAEE0"/><stop offset=".59" stop-color="#FFB7BA"/><stop offset=".8" stop-color="#FFCA67"/><stop offset="1" stop-color="#FFDD14"/></linearGradient><clipPath id="a"><path fill="#fff" d="M0 0h112v29H0z"/></clipPath></defs></svg>